<?xml version="1.0" encoding="utf-8"?>
<svg xmlns="http://www.w3.org/2000/svg" width="144" height="144" viewBox="0 0 144 144" version="1.1">
  <path d="M 72 1.845 C 59.889 5.859, 50.310 11.862, 39.253 22.365 C 26.327 34.643, 16.320 49.602, 11.401 64 C 8.560 72.314, 8.770 89.103, 11.838 99 C 18.367 120.060, 34.404 136.590, 53.932 142.388 C 60.928 144.465, 77.534 144.518, 85.540 142.490 C 103.167 138.024, 120.126 124.847, 127.351 110 C 133.147 98.093, 135.132 88.822, 135.702 71 C 136.120 57.922, 135.877 53.951, 134.145 45.587 C 129.988 25.504, 120.358 11.255, 106.217 4.259 C 99.048 0.713, 98.020 0.486, 88.059 0.261 C 80.020 0.079, 76.187 0.457, 72 1.845 M 78.634 7.154 C 66.242 9.525, 52.981 18.012, 39.470 32.220 C 24.450 48.014, 17.065 62.577, 16.234 78.038 C 15.724 87.542, 17.299 95.459, 21.613 105.072 C 24.459 111.414, 28.619 114.377, 38.932 117.405 C 49.683 120.562, 68.356 118.640, 81.433 113.030 C 102.600 103.950, 118.327 80.227, 124.399 48.219 C 125.725 41.227, 125.749 39.541, 124.569 36.196 C 122.017 28.963, 118.800 23.669, 113.642 18.215 C 107.878 12.121, 102.033 8.786, 94.201 7.124 C 88.150 5.841, 85.476 5.846, 78.634 7.154" stroke="none" fill="#29ce75" fill-rule="evenodd"/>
  <path d="M 72 1.845 C 59.889 5.859, 50.310 11.862, 39.253 22.365 C 26.327 34.643, 16.320 49.602, 11.401 64 C 8.560 72.314, 8.770 89.103, 11.838 99 C 18.367 120.060, 34.404 136.590, 53.932 142.388 C 60.928 144.465, 77.534 144.518, 85.540 142.490 C 103.167 138.024, 120.126 124.847, 127.351 110 C 133.147 98.093, 135.132 88.822, 135.702 71 C 136.120 57.922, 135.877 53.951, 134.145 45.587 C 129.988 25.504, 120.358 11.255, 106.217 4.259 C 99.048 0.713, 98.020 0.486, 88.059 0.261 C 80.020 0.079, 76.187 0.457, 72 1.845 M 78.634 7.154 C 66.242 9.525, 52.981 18.012, 39.470 32.220 C 24.450 48.014, 17.065 62.577, 16.234 78.038 C 15.724 87.542, 17.299 95.459, 21.613 105.072 C 24.459 111.414, 28.619 114.377, 38.932 117.405 C 49.683 120.562, 68.356 118.640, 81.433 113.030 C 102.600 103.950, 118.327 80.227, 124.399 48.219 C 125.725 41.227, 125.749 39.541, 124.569 36.196 C 122.017 28.963, 118.800 23.669, 113.642 18.215 C 107.878 12.121, 102.033 8.786, 94.201 7.124 C 88.150 5.841, 85.476 5.846, 78.634 7.154" stroke="none" fill-rule="evenodd" style="fill: rgb(20, 191, 99);"/>
  <path d="M 61 20.542 C 50.026 25.459, 44.535 38.728, 50.527 45.850 C 53.552 49.445, 57.472 50.490, 62.666 49.086 C 70.875 46.866, 77.930 37.965, 77.978 29.766 C 78.025 21.748, 69.114 16.906, 61 20.542" stroke="none" fill="#fafbf9" fill-rule="evenodd"/>
  <path d="M 78.634 7.154 C 66.242 9.525, 52.981 18.012, 39.470 32.220 C 24.450 48.014, 17.065 62.577, 16.234 78.038 C 15.724 87.542, 17.299 95.459, 21.613 105.072 C 24.459 111.414, 28.619 114.377, 38.932 117.405 C 49.683 120.562, 68.356 118.640, 81.433 113.030 C 102.600 103.950, 118.327 80.227, 124.399 48.219 C 125.725 41.227, 125.749 39.541, 124.569 36.196 C 122.017 28.963, 118.800 23.669, 113.642 18.215 C 107.878 12.121, 102.033 8.786, 94.201 7.124 C 88.150 5.841, 85.476 5.846, 78.634 7.154 M 61 20.542 C 50.026 25.459, 44.535 38.728, 50.527 45.850 C 53.552 49.445, 57.472 50.490, 62.666 49.086 C 70.875 46.866, 77.930 37.965, 77.978 29.766 C 78.025 21.748, 69.114 16.906, 61 20.542" stroke="none" fill="#4fcc74" fill-rule="evenodd"/>
</svg>